<?xml version="1.0" standalone="no"?>
<!DOCTYPE svg PUBLIC "-//W3C//DTD SVG 20010904//EN"
 "http://www.w3.org/TR/2001/REC-SVG-20010904/DTD/svg10.dtd">
<svg version="1.0" xmlns="http://www.w3.org/2000/svg"
 width="370.000000pt" height="370.000000pt" viewBox="0 0 370.000000 370.000000"
 preserveAspectRatio="xMidYMid meet">
<metadata>
Created by potrace 1.16, written by Peter Selinger 2001-2019
</metadata>
<g transform="translate(0.000000,370.000000) scale(0.100000,-0.100000)"
fill="#000000" stroke="none">
<path d="M2507 3679 c-42 -32 -59 -73 -56 -138 2 -31 -3 -73 -10 -94 -8 -24
-10 -52 -5 -80 4 -23 6 -56 5 -73 -7 -92 90 -167 154 -120 20 14 36 112 39
231 1 33 7 70 14 83 16 27 27 149 18 186 -12 49 -24 26 -19 -36 l6 -63 -26 23
c-19 18 -27 20 -33 11 -4 -7 -2 -15 4 -17 7 -2 19 -17 27 -33 14 -26 14 -32 0
-59 -29 -55 -83 -64 -126 -21 -56 56 -33 149 48 198 35 21 36 23 13 23 -14 -1
-38 -10 -53 -21z m-11 -235 c17 -12 38 -15 69 -12 50 6 51 4 46 -82 -4 -61
-52 -78 -111 -37 -38 25 -53 65 -44 115 7 37 7 37 40 16z"/>
<path d="M2237 2920 c-15 -18 -35 -46 -44 -63 l-15 -31 -45 52 c-25 29 -51 52
-58 52 -7 0 -24 -28 -38 -62 -13 -34 -29 -64 -35 -66 -6 -2 -32 24 -58 57 -26
34 -50 61 -54 61 -5 0 -16 -30 -25 -67 -10 -38 -22 -72 -27 -78 -5 -5 -23 5
-46 27 -20 20 -47 41 -59 47 -27 14 -35 2 -53 -81 -7 -32 -15 -58 -18 -58 -2
0 -29 15 -60 34 -88 54 -95 52 -106 -19 -5 -33 -10 -62 -12 -64 -1 -1 -29 13
-61 33 -32 20 -63 36 -69 36 -10 0 -23 -49 -40 -142 l-6 -36 -51 22 c-29 13
-65 26 -81 30 l-29 7 6 -48 c3 -26 9 -58 12 -70 7 -20 4 -23 -22 -23 -17 0
-45 5 -62 11 -60 21 -59 2 7 -153 34 -79 79 -190 101 -248 22 -58 52 -134 66
-170 23 -55 26 -73 20 -123 -5 -46 -3 -64 10 -84 15 -23 15 -28 1 -64 -21 -52
-21 -172 0 -233 24 -69 96 -142 169 -170 l60 -23 48 -97 c27 -54 57 -134 69
-184 42 -176 69 -213 165 -228 49 -7 171 13 284 47 l66 20 38 -25 c49 -33 76
-33 177 4 98 36 171 39 228 10 21 -11 41 -24 45 -30 3 -5 10 -10 14 -10 7 0
18 491 23 1035 2 174 0 194 -19 235 -83 177 -110 240 -148 355 -48 141 -85
329 -85 432 0 66 -12 103 -32 103 -7 0 -24 -12 -40 -27 l-27 -26 -29 63 -28
63 -27 -33z m63 -127 c0 -21 12 -15 51 23 l36 35 6 -99 c13 -207 75 -430 192
-682 l67 -145 -6 -160 c-3 -88 -7 -290 -8 -450 -1 -159 -4 -347 -6 -416 l-3
-126 -37 18 c-55 29 -135 25 -232 -11 -87 -32 -120 -36 -151 -20 -28 16 -23
30 11 30 21 0 30 5 30 16 0 21 -30 17 -195 -30 -271 -77 -360 -54 -380 98 -9
68 -47 181 -90 266 l-35 70 32 0 c18 0 48 4 67 10 30 8 38 6 67 -20 56 -49
130 -51 220 -7 24 11 44 27 44 34 0 18 -14 16 -60 -7 -58 -30 -120 -36 -159
-16 -41 22 -66 72 -57 119 9 49 30 71 108 110 59 29 68 32 85 19 58 -45 117
-62 214 -62 258 0 399 122 399 345 0 96 -21 162 -70 217 -145 165 -500 105
-606 -103 l-23 -47 -43 16 c-30 11 -77 17 -153 17 -98 0 -116 -3 -166 -26 -31
-15 -75 -43 -97 -63 -48 -44 -56 -37 -47 42 5 47 2 68 -15 112 -12 30 -41 105
-64 165 -24 61 -69 170 -100 244 -31 73 -55 135 -53 138 3 2 28 0 57 -5 49 -9
52 -8 62 14 8 18 8 31 0 49 -16 34 -15 65 1 65 6 0 39 -14 72 -30 33 -16 63
-30 68 -30 4 0 7 12 7 27 0 44 22 153 30 153 5 0 38 -20 74 -45 37 -25 68 -45
70 -45 2 0 2 8 0 18 -7 27 10 125 22 129 6 2 39 -17 73 -42 35 -26 64 -45 65
-43 2 2 11 36 22 77 10 41 24 76 31 78 7 3 36 -21 66 -52 l53 -56 24 76 c13
41 26 75 30 75 3 0 30 -27 59 -61 29 -33 57 -57 61 -52 4 4 18 38 30 76 13 37
27 67 31 67 3 0 26 -25 49 -55 23 -30 46 -52 51 -50 4 3 22 31 40 62 l33 57
23 -49 c12 -28 23 -56 23 -62z m23 -794 c60 -20 113 -72 137 -137 18 -47 21
-72 18 -147 -5 -107 -25 -153 -93 -213 -69 -61 -157 -85 -287 -80 -113 4 -144
15 -198 70 -51 50 -70 102 -70 189 0 94 20 155 70 211 94 107 277 154 423 107z
m-582 -205 l57 -16 4 -97 c3 -76 9 -106 28 -141 12 -25 23 -47 23 -50 0 -3
-31 -21 -69 -40 -84 -43 -104 -70 -108 -141 -3 -62 -10 -66 -111 -68 -101 -1
-198 57 -239 144 -17 36 -17 37 3 51 36 25 21 74 -22 74 -18 0 -19 5 -13 52
15 107 84 190 194 230 60 22 178 23 253 2z"/>
<path d="M2508 557 c-55 -42 -75 -81 -60 -119 7 -20 6 -38 -4 -68 -8 -23 -14
-56 -13 -73 0 -18 -5 -57 -12 -89 -10 -46 -10 -64 0 -99 15 -51 70 -109 102
-109 21 0 20 3 -14 25 -20 14 -44 40 -54 58 -20 39 -21 122 -2 162 21 45 76
77 124 73 l40 -3 3 -67 c3 -65 2 -68 -23 -74 -32 -8 -27 -30 6 -26 24 3 24 2
21 -73 -3 -63 -1 -75 12 -75 14 0 16 27 16 229 0 143 -4 232 -10 236 -5 3 -10
28 -10 54 0 26 -5 52 -12 59 -21 21 -65 13 -110 -21z m112 -146 c0 -22 3 -46
6 -55 5 -14 -1 -15 -37 -10 -35 4 -54 0 -93 -21 l-49 -26 7 33 c13 66 72 118
134 118 31 0 32 -2 32 -39z"/>
</g>
</svg>
