<?xml version="1.0" standalone="no"?>
<!DOCTYPE svg PUBLIC "-//W3C//DTD SVG 20010904//EN"
 "http://www.w3.org/TR/2001/REC-SVG-20010904/DTD/svg10.dtd">
<svg version="1.0" xmlns="http://www.w3.org/2000/svg"
 width="370.000000pt" height="370.000000pt" viewBox="0 0 370.000000 370.000000"
 preserveAspectRatio="xMidYMid meet">
<metadata>
Created by potrace 1.16, written by Peter Selinger 2001-2019
</metadata>
<g transform="translate(0.000000,370.000000) scale(0.100000,-0.100000)"
fill="#000000" stroke="none">
<path d="M1709 3686 c-2 -2 -80 -12 -174 -21 -93 -10 -176 -22 -183 -28 -30
-24 -6 -52 135 -152 78 -55 145 -103 149 -107 7 -8 -5 -139 -14 -155 -4 -6
-19 -9 -34 -6 -21 4 -28 12 -33 42 -11 66 -18 70 -72 39 l-48 -26 -35 29 c-19
15 -40 29 -46 29 -11 0 -25 -28 -39 -77 -5 -18 -11 -21 -35 -16 -16 3 -41 2
-56 -1 -27 -7 -28 -14 -9 -81 5 -15 -2 -24 -30 -39 -43 -23 -44 -34 -6 -70 29
-28 29 -29 13 -63 -16 -33 -16 -36 3 -49 10 -8 27 -14 37 -14 19 0 22 -4 33
-54 5 -22 10 -27 25 -23 11 3 18 1 14 -4 -8 -13 8 -10 29 5 9 7 17 19 17 26 0
7 9 1 20 -13 23 -29 81 -52 112 -44 18 5 18 4 5 -11 -7 -9 -17 -26 -20 -37 -5
-14 0 -11 18 10 14 17 25 33 25 36 0 4 20 12 44 18 50 12 56 22 54 96 -1 28
-4 42 -6 33 -3 -14 -13 -18 -42 -18 -63 0 -93 -62 -47 -95 l22 -17 -27 4 c-15
3 -29 0 -31 -6 -5 -14 -97 22 -104 40 -3 8 0 21 6 28 10 12 8 13 -8 9 -12 -3
-21 -1 -21 6 0 6 7 11 16 11 8 0 12 5 9 10 -5 8 -11 7 -21 -1 -9 -8 -14 -8
-14 -1 0 6 8 16 18 22 16 11 16 11 -1 6 -10 -3 -21 -6 -23 -6 -8 0 -4 -39 6
-45 15 -9 1 -31 -27 -44 -30 -14 -33 -12 -42 31 -5 26 -13 34 -41 42 -19 5
-36 10 -38 11 -2 2 5 19 14 38 l17 36 -31 26 c-18 15 -32 31 -32 36 0 5 16 17
35 26 37 18 42 33 25 79 -14 35 -8 39 48 39 46 0 47 1 63 45 9 25 21 45 26 45
24 0 60 -43 67 -80 5 -35 5 -37 -6 -20 -8 13 -26 21 -50 23 -45 4 -50 -14 -17
-67 l20 -34 28 27 c15 15 39 26 53 26 36 0 41 12 25 53 -14 32 -14 34 15 50
37 21 45 17 53 -34 7 -40 9 -42 72 -64 15 -5 5 -42 -13 -49 -8 -3 -19 0 -26 7
-17 19 -67 8 -85 -19 -10 -16 -22 -23 -33 -19 -25 8 -74 -17 -78 -40 -2 -11
-9 -23 -15 -27 -9 -6 -9 -8 1 -8 6 0 12 -6 12 -13 0 -23 36 -48 71 -49 33 -1
69 29 69 57 0 12 29 25 58 25 18 0 15 -27 -5 -39 -10 -6 -13 -11 -7 -11 6 0
18 7 25 17 13 15 15 13 20 -18 l6 -34 2 34 c1 38 56 141 75 141 7 0 21 -9 31
-20 33 -36 125 -334 125 -403 0 -15 -5 -13 -25 11 -46 55 -157 83 -235 59 -25
-8 -45 -19 -45 -25 0 -6 -3 -14 -7 -18 -5 -4 -8 0 -8 10 0 16 -3 15 -31 -4
-16 -12 -28 -25 -25 -28 3 -2 12 1 21 8 18 15 34 5 18 -11 -20 -20 -48 -5 -59
31 -6 19 -18 36 -25 38 -11 4 -12 2 -1 -9 6 -7 12 -29 12 -50 0 -33 2 -36 24
-32 28 6 40 -9 31 -37 -5 -16 -15 -20 -49 -20 -50 0 -76 22 -76 63 0 15 -4 27
-10 27 -5 0 -10 -7 -10 -15 0 -12 -4 -14 -19 -5 -13 7 -22 7 -26 0 -3 -5 9
-17 28 -26 55 -27 69 -60 62 -156 -3 -56 -2 -78 5 -68 5 8 10 26 10 40 0 18 3
21 11 13 18 -18 2 -59 -31 -83 -17 -12 -30 -16 -30 -10 0 6 -16 36 -35 66 -19
30 -35 59 -35 65 0 21 -41 89 -63 103 -26 18 -97 29 -97 15 0 -5 11 -9 24 -9
23 0 36 -16 36 -46 0 -18 -25 -18 -44 1 -8 8 -22 15 -30 15 -29 0 -56 38 -56
78 0 87 75 139 162 112 60 -19 78 -21 78 -11 0 9 -36 17 -115 27 -104 13 -174
-106 -116 -199 11 -19 21 -42 21 -52 0 -26 37 -72 64 -79 18 -4 28 -16 35 -42
6 -20 17 -44 25 -53 8 -9 16 -32 18 -51 2 -27 8 -36 24 -38 15 -2 25 -15 33
-41 6 -21 11 -44 11 -50 0 -23 -18 -1 -25 30 -4 18 -16 35 -31 41 -13 6 -24
20 -24 30 0 11 -14 33 -30 50 -17 16 -30 35 -30 42 0 19 -30 56 -46 56 -9 0
-30 15 -49 33 -77 75 -105 97 -124 97 -10 0 -26 11 -35 25 -9 14 -28 28 -42
31 -14 4 -37 18 -50 31 -17 17 -33 24 -52 22 -19 -2 -37 5 -53 20 -18 17 -32
21 -56 18 -23 -4 -36 0 -50 15 -14 16 -26 19 -57 15 -26 -4 -47 0 -62 10 -30
19 -90 10 -107 -17 -8 -14 -23 -20 -49 -20 -43 0 -78 -36 -78 -81 0 -18 -6
-30 -19 -34 -48 -15 -71 -87 -38 -123 14 -15 15 -23 5 -50 -11 -27 -10 -35 8
-59 11 -16 30 -32 42 -38 11 -5 23 -20 27 -32 7 -31 49 -56 81 -50 18 3 33 -3
55 -26 25 -25 35 -29 64 -24 26 4 35 2 35 -8 0 -18 39 -45 63 -45 11 0 28 -11
39 -25 12 -15 30 -25 46 -25 19 0 32 -9 44 -30 11 -20 25 -30 40 -30 17 0 27
-9 35 -30 8 -22 20 -32 42 -36 20 -4 31 -13 31 -24 0 -19 40 -60 58 -60 7 0
12 -9 12 -19 0 -19 43 -61 62 -61 6 0 19 -11 30 -25 14 -18 29 -25 54 -25 37
0 41 -6 19 -34 -8 -11 -15 -25 -15 -32 0 -6 -14 -27 -31 -45 -45 -48 -60 -94
-56 -164 l3 -60 2 66 c2 57 7 74 35 115 17 27 38 49 46 49 8 0 22 -27 35 -66
25 -78 123 -205 141 -183 6 7 27 26 48 43 61 48 87 21 46 -45 -18 -30 -19 -35
-4 -40 9 -4 43 -3 75 0 59 7 60 6 60 -17 0 -19 -10 -30 -42 -45 -24 -12 -36
-21 -28 -21 8 -1 28 6 44 14 16 9 31 13 34 10 13 -12 -21 -57 -54 -71 -20 -8
-34 -18 -31 -21 3 -3 20 2 36 10 52 26 36 -8 -19 -42 -34 -20 -100 -28 -135
-15 -29 11 -48 62 -40 111 6 38 3 48 -15 65 -20 19 -22 19 -40 3 -13 -12 -19
-13 -22 -4 -7 22 -38 1 -44 -30 -5 -22 -10 -27 -24 -24 -25 7 -43 28 -74 87
-14 27 -26 44 -26 37 0 -17 29 -72 50 -96 10 -11 33 -49 52 -85 l34 -65 -20
-39 c-28 -57 -25 -160 7 -260 40 -123 29 -146 -89 -187 -75 -27 -86 -36 -82
-73 3 -28 -2 -32 -69 -69 -68 -36 -75 -38 -107 -26 -29 10 -40 10 -59 0 -30
-16 -59 -64 -51 -86 4 -10 -2 -25 -15 -39 -50 -54 -81 -207 -47 -236 17 -13
15 -15 90 85 25 33 65 81 88 106 42 45 47 48 155 73 l113 25 57 -33 c32 -19
76 -40 98 -47 22 -7 42 -14 44 -16 7 -4 -43 -140 -65 -173 -27 -43 -36 -71
-26 -86 11 -17 74 -35 86 -25 7 6 31 3 66 -9 30 -11 78 -19 106 -20 48 0 51
-1 47 -24 -6 -31 14 -36 154 -37 128 -1 176 6 219 32 22 13 41 17 62 13 35 -7
124 19 143 42 10 13 10 27 0 72 -7 31 -15 73 -16 92 -2 19 -17 82 -35 140 -28
89 -32 120 -32 205 0 63 7 128 19 174 l18 74 60 13 c34 6 91 25 127 42 l67 30
20 -38 c15 -29 18 -50 14 -96 -6 -73 11 -104 45 -85 28 15 102 108 102 127 0
9 -4 12 -10 9 -5 -3 -10 -12 -10 -18 0 -7 -18 -32 -40 -57 -39 -44 -39 -45
-40 -17 0 18 5 27 16 27 12 0 15 7 12 25 -4 21 -3 23 14 14 15 -8 20 -5 30 16
6 14 16 25 21 25 6 0 1 10 -10 22 -19 21 -53 80 -53 93 0 12 28 4 34 -11 5
-13 9 -14 20 -5 12 10 18 5 32 -24 16 -35 57 -65 89 -65 9 0 24 -18 35 -42 18
-41 18 -42 0 -65 -10 -13 -21 -37 -25 -53 -3 -16 -13 -34 -21 -41 -8 -6 -14
-17 -14 -23 0 -6 -12 -19 -27 -28 -16 -9 -41 -30 -58 -48 -25 -26 -27 -33 -15
-40 35 -23 98 -32 174 -26 63 4 77 3 67 -7 -20 -20 -188 -16 -231 6 -26 13
-30 14 -15 2 32 -25 96 -38 165 -32 100 8 103 11 96 71 -4 28 -8 60 -9 71 -1
11 -6 26 -11 33 -13 21 4 29 18 9 7 -9 17 -17 22 -17 5 0 24 -14 43 -31 l33
-31 -21 -22 c-12 -12 -21 -29 -21 -37 0 -8 9 1 20 18 11 18 24 33 29 33 17 0
60 -64 51 -75 -4 -5 -11 -31 -15 -57 -6 -41 -10 -48 -30 -48 -46 0 -55 10 -57
64 -1 47 -2 48 -5 11 -6 -53 -24 -71 -79 -79 -50 -6 -104 -34 -104 -52 0 -54
260 -165 286 -123 12 20 15 177 3 184 -10 7 -1 85 12 99 5 5 13 5 21 -2 10 -8
20 -6 37 8 20 14 36 17 81 13 47 -5 64 -1 104 20 26 14 58 40 72 58 31 42 81
164 90 218 4 23 11 44 15 47 11 7 11 68 0 117 -10 44 3 97 24 97 21 0 45 29
45 55 0 18 21 40 93 93 50 38 119 84 152 102 76 42 73 39 52 55 -15 11 -15 14
-2 25 22 18 19 29 -11 36 -18 5 -22 10 -15 17 18 18 12 37 -10 37 -18 0 -19 3
-9 15 14 17 5 35 -16 35 -11 0 -13 6 -9 20 5 16 2 20 -15 20 -14 0 -20 5 -18
18 2 11 -4 18 -18 20 -17 2 -21 8 -16 24 4 18 2 20 -16 16 -17 -5 -22 -2 -22
14 0 15 -5 18 -19 13 -15 -4 -20 0 -23 17 -3 22 -5 21 -48 -18 -67 -62 -160
-124 -185 -124 -13 0 -28 -7 -35 -15 -7 -8 -18 -15 -24 -15 -17 0 -56 -43 -56
-61 0 -8 6 -3 13 11 9 17 20 24 35 22 12 -2 22 2 22 7 0 33 85 -13 92 -50 2
-8 -9 -30 -25 -48 l-27 -33 -28 29 c-38 42 -78 47 -119 16 -17 -14 -36 -22
-41 -19 -5 3 -15 -5 -21 -18 -11 -19 -10 -29 3 -55 22 -41 56 -150 56 -178 0
-26 -66 -81 -79 -67 -12 12 -49 164 -57 234 -4 30 -10 60 -14 65 -5 6 -10 21
-12 35 -2 17 -10 26 -25 28 -13 2 -23 8 -23 13 0 18 30 21 53 6 18 -12 23 -22
19 -45 -2 -16 0 -32 5 -35 11 -7 11 63 0 81 -13 19 1 34 23 22 17 -9 18 -7 10
18 -4 15 -11 34 -15 43 -3 10 -2 20 4 23 17 11 41 -37 50 -100 6 -42 9 -49 10
-24 1 51 -15 113 -34 127 -23 16 -48 5 -42 -18 6 -21 -1 -23 -22 -10 -8 5 -20
7 -28 4 -18 -7 -17 -39 2 -47 8 -3 15 -10 15 -15 0 -6 -6 -8 -14 -5 -21 8 -56
-14 -50 -31 3 -7 15 -15 27 -17 13 -2 23 -11 25 -23 2 -11 7 -29 11 -40 5 -11
14 -55 21 -99 6 -43 18 -99 25 -124 9 -29 11 -51 5 -62 -6 -12 -4 -24 7 -40
12 -17 13 -22 2 -18 -7 2 -25 42 -39 89 -32 103 -85 204 -119 228 -37 26 -145
61 -187 61 -45 0 -41 19 9 36 32 11 38 11 47 -4 5 -9 9 -12 9 -7 0 6 -10 26
-23 44 l-23 35 25 28 25 27 38 -19 c21 -11 42 -20 47 -20 5 0 17 20 26 45 17
43 20 45 57 45 l39 0 0 59 c0 57 1 59 40 85 22 14 40 29 40 33 0 4 -18 28 -39
53 -26 31 -36 51 -31 61 4 8 10 25 14 39 3 14 -3 5 -14 -19 l-21 -45 42 -42
41 -42 -43 -32 c-44 -31 -44 -32 -41 -86 l4 -54 -40 0 c-37 0 -41 -3 -56 -40
-18 -44 -22 -46 -70 -26 -24 10 -37 11 -44 4 -13 -13 -42 13 -43 39 0 16 -1
16 -8 -2 -6 -14 -2 -24 12 -36 11 -9 17 -21 13 -27 -10 -16 -47 -15 -40 1 2 7
-1 21 -9 31 -10 14 -20 16 -51 10 l-39 -7 29 -13 c80 -39 142 -104 98 -104 -9
0 -48 -11 -86 -25 -38 -14 -82 -25 -96 -25 -36 1 -242 -36 -250 -45 -7 -7 5
-5 122 15 75 13 76 12 46 -5 -38 -22 -15 -18 30 5 22 11 41 20 44 20 3 0 -33
-37 -81 -81 -195 -184 -356 -250 -600 -248 -142 1 -155 5 -172 54 -21 63 -25
211 -7 268 8 27 12 55 9 63 -10 27 20 135 43 153 35 28 64 83 64 124 0 20 3
37 8 37 4 0 41 -9 82 -20 116 -30 120 -29 118 28 l-1 47 -4 -42 c-2 -24 -9
-43 -15 -43 -6 0 -50 9 -99 21 -80 19 -90 23 -108 54 -11 18 -38 44 -60 57
-39 22 -40 24 -34 63 3 22 10 45 16 50 7 7 8 4 4 -7 -9 -27 17 -45 102 -72 72
-23 240 -48 181 -27 -24 9 -24 9 -3 10 12 1 33 6 46 12 20 9 29 8 48 -10 13
-11 33 -27 44 -36 20 -16 19 -16 -5 -11 -14 3 -36 8 -50 11 -14 3 -2 -3 25
-15 60 -24 55 -24 55 1 0 30 15 16 70 -67 64 -94 68 -104 42 -104 -12 0 -24
-5 -28 -12 -5 -8 2 -9 23 -5 22 4 40 -1 69 -20 l39 -26 -39 39 c-33 34 -131
175 -124 178 47 25 92 65 117 105 18 28 36 51 40 51 4 0 12 -45 19 -101 7 -58
26 -143 46 -202 19 -56 32 -104 29 -107 -2 -2 -23 6 -46 18 -38 21 -39 21 -17
3 34 -29 60 -34 111 -24 39 8 44 12 41 33 -2 14 -8 30 -13 36 -6 8 -1 17 15
28 31 20 36 20 36 1 0 -8 -5 -15 -12 -15 -6 0 -3 -7 8 -15 29 -22 91 -19 104
4 14 26 14 26 -22 28 -36 3 -93 28 -104 45 -5 8 -1 9 12 3 39 -16 107 -35 111
-31 3 2 -21 11 -51 20 -93 27 -207 137 -189 182 3 9 20 14 44 14 34 0 39 -3
39 -23 0 -13 9 -32 20 -42 11 -10 20 -13 20 -8 0 6 -7 16 -15 23 -19 16 -19
29 1 51 15 16 14 17 -13 14 -15 -1 -31 2 -35 9 -6 8 -8 8 -8 -1 0 -7 -11 -13
-24 -13 -55 0 -53 -47 4 -120 17 -21 30 -43 30 -49 0 -6 11 -17 25 -23 30 -14
32 -31 5 -49 -18 -13 -19 -17 -8 -46 14 -36 13 -38 -23 -47 -25 -6 -28 -2 -54
67 -34 93 -52 173 -61 270 -6 67 -10 81 -30 94 -14 9 -24 25 -24 38 0 19 -7
24 -37 27 -46 6 -57 0 -17 -8 18 -4 37 -19 50 -39 l22 -33 -34 -51 c-19 -28
-36 -51 -38 -51 -2 0 -26 27 -53 60 -26 33 -52 60 -57 60 -5 0 13 -25 39 -56
l48 -55 -49 3 -49 3 2 45 c1 39 1 41 -7 15 -4 -16 -8 -47 -9 -68 l-1 -37 -25
16 c-41 27 -49 51 -25 71 22 19 27 58 8 67 -7 3 3 4 22 1 l35 -4 -33 11 c-46
16 -35 32 29 41 57 9 86 27 91 57 3 16 6 16 58 -4 30 -11 47 -22 38 -24 -9 -2
-30 4 -47 13 -17 8 -31 13 -31 11 0 -10 59 -36 79 -36 14 0 19 -5 15 -15 -4
-8 -1 -15 6 -15 12 0 10 27 -5 63 -5 12 -2 17 10 17 10 0 24 -8 31 -17 13 -17
14 -17 8 0 -8 21 -5 21 34 1 18 -8 32 -20 32 -26 0 -6 3 -8 7 -5 8 9 -26 47
-43 47 -7 0 -25 10 -39 23 -25 21 -27 29 -31 122 -9 240 -40 411 -105 573 -18
47 -29 92 -29 123 l0 50 48 -5 c26 -3 38 -3 27 0 -136 37 -191 57 -216 79 -30
25 -73 33 -83 16 -3 -4 -39 1 -79 12 l-74 19 14 29 c8 16 21 29 29 29 16 0 19
16 4 25 -6 4 -8 11 -4 16 3 6 -6 22 -20 36 -25 25 -27 25 -46 8 -20 -18 -20
-17 -20 17 0 19 2 37 5 40 3 2 62 -10 133 -29 70 -18 186 -47 259 -65 l131
-31 159 40 c87 22 160 39 162 37 7 -6 -27 -157 -37 -163 -6 -3 -73 -28 -151
-55 -77 -27 -139 -52 -136 -54 5 -5 283 90 304 104 2 2 11 42 20 89 17 83 17
86 -1 96 -10 5 -23 7 -28 4 -6 -3 -10 -2 -10 3 0 6 -12 13 -27 17 -14 3 -38
15 -51 26 -16 12 -40 19 -69 19 -29 0 -55 7 -74 21 -16 11 -37 18 -47 16 -13
-4 -11 -5 6 -6 12 0 22 -5 22 -9 0 -5 10 -14 23 -20 18 -9 19 -11 4 -11 -10
-1 -15 -5 -12 -11 8 -13 2 -13 -30 4 -25 13 -25 15 -8 25 15 9 12 10 -20 11
-23 0 -36 4 -32 10 3 6 -3 10 -14 10 -34 0 -51 11 -51 35 0 19 -28 43 -135
119 -126 89 -139 96 -184 96 -26 0 -50 -2 -52 -4z m84 -17 c-6 -6 -46 -15 -88
-20 -103 -11 -112 -23 -10 -13 44 4 85 7 90 7 6 0 70 -42 143 -94 102 -72 128
-95 115 -101 -27 -10 -52 -8 -28 2 18 8 18 9 -5 9 -14 0 -41 -6 -60 -13 -23
-8 -46 -9 -65 -4 -44 13 -111 0 -142 -26 -16 -13 -40 -25 -55 -28 -23 -4 -28
-1 -33 23 -5 21 -30 45 -93 92 -48 35 -97 69 -109 76 -49 25 -18 0 82 -71 79
-55 105 -78 105 -95 0 -19 -19 -9 -142 79 -79 55 -145 103 -148 105 -2 2 1 12
6 21 9 14 48 21 200 38 235 26 251 27 237 13z m-233 -528 c0 -5 9 -11 20 -14
30 -8 28 -57 -2 -57 -40 0 -68 -12 -68 -28 0 -51 -91 -73 -111 -28 -16 34 -3
75 27 88 22 10 28 9 39 -6 8 -10 18 -15 24 -11 6 3 11 1 11 -6 0 -7 3 -9 6 -6
4 4 1 13 -6 22 -11 13 -10 19 5 35 18 20 55 28 55 11z m283 -69 c9 -20 18 -44
21 -52 3 -8 4 1 1 20 -12 72 -11 84 8 88 22 4 53 -22 74 -62 16 -32 83 -99 83
-84 0 5 -16 25 -36 44 -19 20 -33 38 -31 40 3 3 26 0 51 -7 l47 -12 -2 -51
c-1 -37 7 -72 29 -128 67 -166 102 -367 102 -588 0 -153 -2 -156 -83 -120 -35
16 -48 28 -57 54 -6 18 -21 42 -33 54 -20 19 -22 29 -20 109 2 115 -25 205
-67 218 -32 10 -57 72 -79 199 -12 65 -28 130 -35 145 -8 14 -24 60 -36 101
-12 41 -27 81 -32 87 -7 9 4 8 35 -3 36 -12 47 -22 60 -52z m-1351 -289 c12
-11 21 -12 37 -4 29 16 48 14 68 -8 12 -13 30 -19 57 -18 29 1 43 -5 57 -22
15 -18 25 -22 45 -17 20 5 31 0 54 -24 15 -16 36 -30 46 -30 21 0 54 -28 54
-47 0 -8 11 -13 29 -13 21 0 36 -8 51 -30 12 -16 28 -30 35 -30 8 0 24 -13 37
-30 12 -16 28 -30 37 -30 21 0 51 -30 51 -51 0 -10 11 -26 25 -35 15 -9 27
-30 31 -50 3 -19 10 -34 15 -34 12 0 49 -38 49 -50 0 -5 -11 2 -25 15 -13 14
-29 25 -34 25 -6 0 -14 16 -20 36 -5 19 -21 44 -35 55 -14 11 -26 25 -26 31 0
18 -31 48 -49 48 -9 0 -24 13 -34 29 -9 16 -28 32 -42 35 -14 4 -25 13 -25 21
0 17 -30 35 -58 35 -10 0 -24 11 -30 25 -7 16 -23 28 -41 31 -17 4 -38 15 -47
25 -10 11 -30 19 -47 19 -18 0 -41 9 -54 21 -12 12 -37 22 -55 23 -18 1 -44 7
-57 15 -13 7 -38 11 -55 8 -19 -3 -39 1 -51 9 -26 19 -72 17 -93 -4 -18 -18
-106 -26 -95 -8 3 4 20 6 37 3 25 -4 35 -1 45 14 24 39 76 44 113 12z m1242
-4 c52 -13 102 -62 141 -137 16 -31 38 -57 51 -62 12 -5 28 -19 35 -31 10 -19
9 -21 -5 -16 -8 3 -35 -2 -58 -13 l-42 -19 -13 31 c-7 17 -16 29 -19 25 -3 -3
0 -14 8 -26 20 -32 -1 -43 -89 -46 -87 -3 -118 -14 -128 -46 -19 -60 30 -132
99 -145 42 -7 103 19 119 53 8 18 19 23 51 25 l41 1 -36 4 c-32 4 -37 8 -42
36 -3 18 -8 40 -12 49 -5 13 4 21 41 37 60 27 78 26 98 -4 21 -32 22 -87 1
-79 -9 4 -15 0 -15 -9 0 -9 -8 -18 -17 -20 -15 -4 -14 -5 2 -6 28 -1 45 -20
45 -47 0 -36 -36 -54 -108 -54 -73 0 -114 -15 -167 -61 -48 -43 -65 -83 -65
-158 0 -53 4 -65 31 -96 17 -19 36 -35 41 -35 6 0 -2 12 -17 28 -50 49 -59
116 -26 188 38 84 90 113 220 124 109 10 122 4 142 -59 6 -20 16 -41 21 -48
15 -19 -1 -52 -29 -59 -14 -4 -75 -4 -135 -1 -119 7 -167 -3 -187 -41 -17 -32
-13 -50 13 -68 23 -14 31 -14 102 1 45 11 71 21 64 25 -17 11 -4 60 16 60 10
0 13 -6 9 -19 -3 -10 1 -24 10 -31 22 -19 19 -50 -6 -50 -11 0 -18 -4 -15 -9
3 -4 -4 -17 -15 -27 -17 -15 -36 -19 -90 -18 -37 0 -66 -3 -64 -6 5 -9 -132
27 -154 40 -23 13 -25 186 -2 200 12 8 9 9 -12 4 -19 -4 -34 -1 -47 11 -35 31
-23 84 19 86 24 2 24 2 3 6 -19 4 -21 7 -11 19 6 8 9 26 5 41 l-6 28 25 -30
c34 -41 32 -21 -2 24 l-28 36 -5 -48 -5 -49 -36 69 c-20 37 -34 75 -31 83 5
13 3 13 -13 0 -17 -14 -18 -13 -10 5 15 38 17 75 4 91 -7 9 -14 34 -14 55 -1
37 0 39 31 39 31 0 32 -1 29 -37 -1 -21 0 -25 2 -10 3 19 16 35 40 49 33 20
35 24 30 63 -5 48 5 72 36 85 31 12 101 12 151 -1z m-489 -156 c14 -21 25 -44
25 -51 0 -7 19 -46 43 -85 90 -149 131 -283 130 -422 0 -94 -27 -271 -44 -291
-6 -8 2 -22 28 -44 l37 -33 -32 -26 c-32 -27 -113 -61 -144 -61 -11 0 -18 8
-18 19 0 10 -9 29 -20 42 l-20 24 15 -31 c15 -30 35 -120 35 -154 0 -9 -11
-22 -25 -28 -22 -10 -28 -7 -66 36 -47 53 -76 110 -81 162 l-3 35 53 0 c30 0
56 -3 58 -7 2 -4 23 -5 47 -4 31 2 52 11 74 32 28 26 31 33 24 64 -5 24 -13
36 -26 38 -17 2 -20 10 -19 50 1 70 2 70 35 87 44 23 69 52 69 80 0 14 -4 25
-9 25 -4 0 -6 -11 -4 -24 9 -45 -91 -97 -219 -115 -64 -8 -83 -24 -67 -53 14
-26 53 -32 104 -18 40 11 62 30 35 30 -5 0 -10 9 -10 20 0 11 4 20 9 20 5 0
11 -9 14 -20 3 -11 12 -20 21 -20 18 0 22 -25 6 -35 -7 -4 -7 -12 0 -25 27
-50 -1 -81 -65 -73 -16 1 -47 5 -68 7 -22 3 -40 6 -41 8 -24 34 -44 82 -39 94
5 14 3 14 -16 3 -16 -10 -26 -11 -39 -3 -25 16 -28 54 -4 60 23 7 19 43 -9 73
-10 11 -19 28 -19 38 0 10 -7 28 -15 40 -14 20 -13 24 10 47 14 14 25 32 25
41 0 8 6 15 14 15 7 0 25 9 39 20 14 11 32 20 40 20 8 0 20 6 26 14 15 18 79
25 92 10 6 -8 5 -14 -7 -18 -9 -3 -19 -4 -23 -2 -4 3 -13 -10 -19 -29 -10 -26
-17 -32 -32 -28 -11 3 -21 13 -21 22 -1 14 -2 13 -6 -1 -4 -16 -22 -22 -60
-21 -7 1 -11 -3 -8 -7 3 -4 -6 -19 -20 -34 -33 -36 -13 -33 23 4 32 32 72 40
72 15 0 -8 7 -15 15 -15 8 0 15 5 15 12 0 6 9 3 20 -7 28 -25 27 -88 -2 -115
-47 -44 -137 -13 -139 48 l-1 27 -7 -30 c-6 -26 -2 -33 23 -52 57 -44 156 -16
156 43 0 17 10 29 39 44 61 31 95 4 54 -43 -14 -16 -15 -19 -3 -15 8 2 20 15
26 27 7 14 14 19 18 12 4 -6 17 -11 29 -11 22 0 22 0 -2 13 -19 10 -24 21 -25
60 -1 27 2 51 6 53 4 3 8 10 8 17 0 8 -3 8 -12 -1 -18 -18 -25 -15 -31 16 -5
30 -54 164 -85 235 -17 37 -25 45 -55 51 -29 5 -65 37 -64 56 0 3 -5 15 -12
28 -13 25 -4 29 25 7 10 -8 34 -15 53 -15 32 0 33 1 28 30 -9 41 7 38 38 -7z
m588 -195 c12 -50 -8 -88 -57 -112 -38 -18 -39 -18 -85 0 -39 16 -48 26 -60
61 -13 37 -13 43 3 67 16 26 20 27 104 24 l86 -3 9 -37z m-395 -25 c10 -16 31
-52 45 -80 23 -47 25 -55 13 -78 -18 -35 -9 -64 24 -83 23 -14 29 -25 34 -71
6 -48 4 -57 -13 -71 -12 -9 -23 -33 -27 -57 -5 -30 -11 -43 -23 -43 -35 0 -39
13 -38 135 1 124 -14 198 -63 307 -13 31 -16 46 -8 55 16 20 35 15 56 -14z
m103 -514 c58 -29 89 -73 89 -125 0 -51 -16 -88 -54 -123 -24 -23 -26 -23 -32
-5 -9 24 -55 74 -68 74 -6 0 -23 10 -38 23 l-27 22 17 83 16 83 30 -7 c17 -3
47 -15 67 -25z m1861 -201 c17 4 20 2 15 -13 -6 -14 -3 -17 18 -13 21 5 25 2
20 -13 -5 -15 -1 -19 15 -19 17 0 21 -5 17 -20 -4 -16 0 -20 19 -20 22 0 23
-3 14 -20 -9 -17 -8 -20 11 -20 18 0 20 -4 15 -25 -5 -20 -3 -25 14 -25 21 0
27 -15 10 -25 -16 -10 -12 -22 11 -28 18 -5 19 -8 7 -27 -11 -17 -11 -22 0
-29 10 -6 -4 -19 -50 -47 -72 -43 -203 -138 -213 -153 -3 -6 -18 -11 -33 -11
-23 -1 -25 -2 -9 -11 20 -12 22 -40 5 -57 -13 -13 -44 -16 -51 -4 -2 4 -3 2
-1 -5 1 -6 -2 -28 -9 -48 -10 -34 -13 -36 -41 -29 -17 3 -53 9 -81 13 l-50 6
-7 45 c-7 39 -5 47 12 59 11 7 20 21 20 30 1 13 3 13 12 -3 8 -14 8 -24 0 -37
-13 -21 7 -43 31 -33 9 3 24 1 34 -5 15 -9 13 -10 -11 -5 -21 5 -27 4 -22 -5
12 -19 64 -13 76 8 20 38 12 61 -27 77 -88 37 -202 133 -222 187 -11 28 -8 31
75 80 7 4 11 -5 11 -23 0 -29 18 -60 35 -60 5 0 0 12 -11 26 -16 20 -18 31
-10 45 13 26 28 23 67 -11 23 -21 32 -38 32 -61 0 -44 47 -89 93 -89 33 0 87
31 87 50 0 5 -11 -2 -25 -15 -51 -52 -145 -16 -145 55 0 46 15 69 42 62 17 -4
20 -2 15 11 -11 28 55 22 87 -8 14 -13 26 -20 26 -15 0 17 -53 50 -81 50 -22
0 -31 7 -44 35 -10 19 -30 40 -46 47 -36 16 -37 28 -3 28 24 0 107 53 184 118
31 26 35 28 38 12 2 -13 9 -16 24 -12z m-1884 -28 c27 -41 28 -65 2 -130 -22
-56 -25 -73 -9 -50 8 11 9 5 4 -25 -3 -22 -8 -81 -11 -130 -7 -102 13 -209 43
-231 16 -11 16 -16 -5 -75 -54 -156 -78 -332 -61 -455 l11 -84 -39 -51 -38
-51 -65 7 c-183 20 -355 123 -388 234 -19 63 -17 68 46 90 31 11 70 28 86 36
24 13 31 13 37 3 6 -8 9 2 9 27 0 31 3 37 11 25 13 -19 11 -8 -25 114 -28 95
-34 190 -15 247 7 19 13 35 14 37 2 2 15 -8 29 -21 28 -26 65 -37 126 -37 29
0 44 6 62 28 12 15 37 33 55 41 62 25 87 69 86 148 -1 73 -4 76 -78 68 -68 -8
-76 -3 -50 31 32 42 4 95 -38 72 -22 -12 -23 -11 -30 29 -6 31 -5 32 42 48 57
19 141 70 141 86 0 19 24 4 48 -31z m1174 -277 c29 -13 58 -37 77 -63 27 -37
78 -163 95 -232 6 -27 5 -27 -19 -16 -13 6 -27 19 -30 30 -7 19 -43 43 -52 34
-4 -3 -12 -1 -20 5 -9 9 -13 8 -13 0 0 -7 -16 -3 -41 9 -22 12 -46 19 -52 17
-7 -2 4 -11 25 -21 20 -10 44 -26 53 -36 17 -19 15 -19 -40 1 -45 16 -70 19
-109 13 l-51 -7 40 -12 c61 -18 93 -43 101 -78 3 -18 11 -38 17 -45 17 -21 84
-52 112 -52 14 0 25 -4 25 -8 0 -14 -55 -85 -91 -117 -19 -16 -25 -20 -15 -8
18 22 18 23 -45 123 -84 134 -95 146 -162 160 -65 13 -124 8 -233 -21 -95 -26
-253 -30 -304 -9 -33 14 -33 14 -12 31 12 9 18 20 14 24 -4 5 -2 5 5 1 15 -8
150 62 221 115 29 22 84 68 123 103 82 75 115 86 244 82 66 -2 103 -8 137 -23z
m-1498 -28 c-8 -19 -14 -42 -14 -52 1 -10 7 -1 15 21 22 64 37 69 30 11 -5
-38 -2 -60 12 -90 18 -40 32 -47 89 -49 27 -1 21 -19 -11 -36 -29 -16 -108 -7
-142 15 -19 13 -84 121 -83 140 0 15 16 3 22 -17 5 -19 6 -17 7 12 2 47 11 80
23 80 6 0 8 -21 4 -52 -5 -52 -5 -52 7 -18 18 51 37 81 47 75 5 -3 2 -21 -6
-40z m1612 -259 c5 -21 20 -29 82 -50 43 -14 110 -32 150 -40 41 -8 76 -16 78
-19 4 -4 -11 -96 -18 -102 -7 -7 -131 22 -208 50 -41 14 -93 30 -115 34 -47 8
-67 19 -60 31 3 4 -2 13 -10 20 -20 17 -19 31 2 23 11 -4 14 -3 9 5 -4 7 -14
12 -22 12 -8 0 -14 2 -14 4 0 2 -3 12 -6 20 -5 14 -2 15 21 6 14 -5 40 -10 57
-10 30 0 31 0 13 20 -18 20 -17 20 8 20 20 0 28 -6 33 -24z m-849 -296 c-28
-102 -27 -268 1 -363 14 -48 16 -70 8 -72 -76 -25 -136 -37 -211 -42 -106 -7
-93 -32 -101 199 -6 152 -5 159 19 211 39 86 106 124 237 137 36 3 66 6 66 5
1 0 -7 -34 -19 -75z m-974 -247 c20 -29 32 -55 29 -57 -4 -2 -53 -14 -109 -26
l-102 -23 -68 -83 c-37 -46 -72 -82 -78 -80 -47 16 82 256 138 256 12 0 49 16
82 34 33 19 63 34 67 33 3 -1 22 -26 41 -54z m558 -242 l28 -84 -47 -52 -47
-52 -48 24 c-27 13 -52 22 -55 19 -3 -3 -1 -6 4 -6 6 0 19 -7 30 -15 17 -13
15 -14 -31 -9 -53 6 -195 33 -207 40 -4 3 5 24 21 48 15 24 35 70 45 103 l18
59 58 -10 58 -9 -38 -56 c-56 -84 -58 -95 -14 -120 20 -12 38 -20 41 -18 2 3
-12 14 -32 26 -32 19 -35 23 -24 43 30 59 84 128 100 128 10 0 35 21 56 46
l38 45 9 -33 c5 -18 22 -71 37 -117z m457 1 c11 -32 10 -34 -23 -48 -62 -25
-174 -44 -258 -43 -60 1 -71 3 -43 8 35 5 38 7 23 20 -10 7 -17 19 -17 27 0 7
-15 14 -37 17 -33 3 -31 4 12 5 88 3 216 22 269 40 28 10 54 16 57 13 4 -4 11
-21 17 -39z"/>
<path d="M2499 2154 c-29 -30 -39 -35 -74 -32 l-40 3 -3 -63 c-2 -34 -6 -61
-10 -58 -4 2 -7 -9 -8 -25 -1 -36 4 -37 16 -4 6 17 16 25 27 23 10 -2 17 2 16
10 -5 22 47 13 72 -13 31 -30 31 -43 0 -78 l-25 -28 -33 21 -32 22 34 -32 34
-33 14 26 c8 17 19 24 28 21 10 -4 15 0 15 10 0 43 80 23 100 -24 15 -36 -3
-78 -40 -97 -16 -8 -19 -13 -9 -13 9 0 22 7 29 15 8 9 21 13 34 10 14 -4 17
-3 8 3 -8 6 -11 18 -7 35 4 14 2 35 -5 47 -9 16 -8 25 1 38 11 14 11 15 0 5
-17 -15 -61 3 -61 26 0 10 -3 12 -8 5 -4 -6 -14 -13 -24 -17 -19 -7 -45 44
-32 65 6 10 5 11 -7 1 -13 -10 -20 -9 -37 8 -12 11 -22 15 -22 9 0 -15 -40
-12 -41 3 0 6 -4 3 -9 -8 -6 -15 -9 -8 -9 29 l-1 48 41 -4 c38 -3 44 -1 72 34
17 21 35 38 41 38 5 0 22 -12 38 -27 27 -26 30 -26 79 -15 28 7 54 12 59 12 5
0 14 -25 21 -55 12 -54 13 -56 56 -67 24 -6 46 -14 49 -19 3 -5 10 -9 15 -9
24 0 -5 20 -51 35 -46 15 -50 19 -56 56 -4 21 -12 46 -19 56 -12 16 -18 16
-64 4 -50 -13 -53 -12 -86 13 -18 14 -38 26 -42 26 -5 0 -25 -16 -44 -36z"/>
</g>
</svg>
